<svg id="svg" xmlns="http://www.w3.org/2000/svg" xmlns:xlink="http://www.w3.org/1999/xlink" width="400" height="400" viewBox="0, 0, 400,400">
  <g id="svgg">
    <path id="path0" d="M101.918 108.949 C 98.963 111.904,99.197 117.154,102.404 119.852 L 104.807 121.875 200.000 121.875 L 295.193 121.875 297.596 119.852 C 300.803 117.154,301.037 111.904,298.082 108.949 L 296.165 107.031 200.000 107.031 L 103.835 107.031 101.918 108.949 M73.377 166.346 C 71.687 168.037,71.094 169.371,71.094 171.484 C 71.094 173.598,71.687 174.932,73.377 176.623 L 75.661 178.906 200.000 178.906 L 324.339 178.906 326.623 176.623 C 329.774 173.471,329.774 169.498,326.623 166.346 L 324.339 164.063 200.000 164.063 L 75.661 164.063 73.377 166.346 M73.377 223.377 C 71.687 225.068,71.094 226.402,71.094 228.516 C 71.094 230.629,71.687 231.963,73.377 233.654 L 75.661 235.938 200.000 235.938 L 324.339 235.938 326.623 233.654 C 329.774 230.502,329.774 226.529,326.623 223.377 L 324.339 221.094 200.000 221.094 L 75.661 221.094 73.377 223.377 M102.404 280.148 C 99.197 282.846,98.963 288.096,101.918 291.051 L 103.835 292.969 200.000 292.969 L 296.165 292.969 298.082 291.051 C 301.037 288.096,300.803 282.846,297.596 280.148 L 295.193 278.125 200.000 278.125 L 104.807 278.125 102.404 280.148 " stroke="none" fill="#ffffff" fill-rule="evenodd"></path>
  </g>
</svg>