<?xml version="1.0" standalone="no"?>
<!DOCTYPE svg PUBLIC "-//W3C//DTD SVG 20010904//EN"
 "http://www.w3.org/TR/2001/REC-SVG-20010904/DTD/svg10.dtd">
<svg version="1.0" xmlns="http://www.w3.org/2000/svg"
 width="260.000000pt" height="260.000000pt" viewBox="0 0 260.000000 260.000000"
 preserveAspectRatio="xMidYMid meet">
<metadata>
Created by potrace 1.11, written by Peter Selinger 2001-2013
</metadata>
<g transform="translate(0.000000,260.000000) scale(0.100000,-0.100000)"
fill="#000000" stroke="none">
<path d="M1049 2297 c-135 -78 -417 -241 -627 -362 l-382 -220 0 -777 c0 -428
3 -778 8 -778 4 0 200 119 437 264 l430 263 3 249 3 249 188 108 c103 59 191
107 194 107 6 0 368 -208 377 -216 2 -3 4 -115 5 -249 0 -134 2 -245 5 -248 9
-8 861 -527 865 -527 3 0 5 350 5 778 l0 778 -92 54 c-51 30 -103 60 -115 66
-12 7 -171 99 -355 204 -530 307 -590 341 -641 372 -26 15 -51 28 -55 28 -4 0
-118 -64 -253 -143z m509 -56 c141 -82 275 -159 297 -171 22 -12 78 -45 125
-73 47 -27 105 -61 130 -75 181 -101 377 -217 390 -231 13 -15 15 -110 14
-732 0 -392 -3 -714 -7 -714 -17 0 -107 62 -108 75 -1 8 -2 303 -3 654 l-1
639 -45 27 c-179 108 -1040 600 -1049 600 -10 0 -118 -61 -406 -229 -44 -26
-216 -125 -382 -221 l-303 -175 0 -651 0 -651 -37 -25 c-21 -14 -48 -30 -61
-37 l-22 -12 2 727 3 726 600 348 c330 191 601 348 603 349 1 1 118 -66 260
-148z m280 -358 l512 -296 0 -624 0 -624 -22 12 c-13 7 -40 23 -60 37 l-38 25
-2 551 -3 551 -315 183 c-173 101 -322 186 -330 189 -7 4 -43 24 -78 46 -36
21 -81 48 -101 59 -20 11 -50 28 -67 39 l-31 18 -457 -264 c-252 -145 -461
-267 -465 -270 -3 -4 -6 -254 -6 -555 0 -302 -3 -551 -5 -553 -3 -2 -28 -17
-57 -35 -44 -26 -52 -28 -55 -14 -2 9 -4 289 -3 622 l0 605 70 42 c336 201
973 561 985 557 8 -3 246 -138 528 -301z m-93 -144 l435 -251 0 -524 0 -524
-58 36 -59 37 0 448 c0 247 -2 451 -4 453 -10 9 -737 426 -750 430 -8 3 -183
-93 -389 -212 l-375 -217 -2 -450 c-3 -509 7 -448 -85 -503 l-38 -23 0 524 0
523 178 102 c97 56 292 169 432 251 140 82 261 149 268 150 7 1 208 -112 447
-250z m-75 -154 c179 -103 330 -191 336 -196 8 -6 11 -136 11 -428 l-1 -420
-36 22 c-20 12 -47 29 -61 38 l-24 16 0 348 0 347 -294 170 c-188 108 -299
167 -310 163 -9 -3 -144 -80 -301 -171 l-285 -165 0 -347 0 -347 -50 -32 c-27
-18 -53 -33 -57 -33 -5 0 -8 188 -8 419 l0 419 213 122 c116 67 230 133 252
145 22 13 87 50 144 83 93 54 107 59 125 47 12 -7 167 -97 346 -200z m-93
-142 l273 -158 0 -317 c0 -175 -3 -318 -6 -318 -3 0 -30 15 -60 32 l-54 33 0
247 0 247 -92 54 c-51 30 -147 86 -214 124 l-121 71 -214 -124 -214 -123 -1
-243 c-1 -134 -2 -246 -3 -250 -1 -6 -103 -68 -113 -68 -3 0 -5 143 -4 317 l1
317 115 67 c63 37 185 108 270 157 85 50 157 91 159 91 3 1 127 -70 278 -156z"/>
</g>
</svg>
